<svg width="48px" height="48px" viewBox="0 0 50 48" fill="none" xmlns="http://www.w3.org/2000/svg"><g filter="url(#a)"><path d="M38.426 17.47a5.792 5.792 0 0 0-.305-.773v-.016a5.642 5.642 0 0 0-2.635-2.61 5.614 5.614 0 0 0-6.816 1.571 5.664 5.664 0 0 0-1.235 3.503c0 .4.043.8.129 1.191v.017c.032.16.08.321.128.483a8.74 8.74 0 0 1-1.038 6.73 8.665 8.665 0 0 1-9.009 3.965 8.663 8.663 0 0 1-5.636-3.794 8.728 8.728 0 0 1-1.276-3.23c.29 1.996.994 3.91 2.068 5.616a14.387 14.387 0 0 0 4.164 4.288 14.331 14.331 0 0 0 11.502 1.988 14.34 14.34 0 0 0 5.353-2.643 14.397 14.397 0 0 0 3.821-4.599 14.449 14.449 0 0 0 .785-11.687Z" fill="#6378FF"></path><path d="M15.627 22.317c1.86 2.721 5.711 2.48 5.711 2.48-.962-.934-1.588-1.788-1.652-4.219-.064-2.431-1.444-3.075-1.444-3.075 2.47-1.562 1.588-3.253 1.508-5.137-.048-1.175.642-2.045 1.187-2.544a12.313 12.313 0 0 0-7.92 4.662 12.398 12.398 0 0 0-2.509 8.864c.225-.628 3.402-3.543 5.119-1.03Z" fill="#0AA3F9"></path><path d="M38.426 17.47a5.792 5.792 0 0 0-.305-.773v-.016a5.642 5.642 0 0 0-2.635-2.61 5.614 5.614 0 0 0-6.816 1.571 5.664 5.664 0 0 0-1.235 3.503c0 .4.043.8.129 1.191v.017c.032.16.08.321.128.483a8.74 8.74 0 0 1-1.038 6.73 8.665 8.665 0 0 1-9.009 3.965 8.663 8.663 0 0 1-5.636-3.794 8.728 8.728 0 0 1-1.276-3.23c.29 1.996.994 3.91 2.068 5.616a14.387 14.387 0 0 0 4.164 4.288 14.331 14.331 0 0 0 11.502 1.988 14.34 14.34 0 0 0 5.353-2.643 14.397 14.397 0 0 0 3.821-4.599 14.449 14.449 0 0 0 .785-11.687Z" fill="#0AA3F9"></path><path fill-rule="evenodd" clip-rule="evenodd" d="M36.034 21.351c0 7.017-5.667 12.705-12.659 12.705a12.606 12.606 0 0 1-9.366-4.158 8.664 8.664 0 0 0 7.1 1.593 8.662 8.662 0 0 0 3.17-1.396 8.73 8.73 0 0 0 3.413-9.259 5.375 5.375 0 0 1-.128-.483v-.016a5.603 5.603 0 0 1-.129-1.192 5.664 5.664 0 0 1 1.236-3.502 5.63 5.63 0 0 1 4.68-2.113 12.678 12.678 0 0 1 2.683 7.821Z" fill="#7ABBFD"></path></g><defs><filter id="a" x="0.44" y="0.872" width="48.862" height="47.018" filterUnits="userSpaceOnUse" color-interpolation-filters="sRGB"><feFlood flood-opacity="0" result="BackgroundImageFix"></feFlood><feColorMatrix in="SourceAlpha" values="0 0 0 0 0 0 0 0 0 0 0 0 0 0 0 0 0 0 127 0" result="hardAlpha"></feColorMatrix><feOffset dy="1.05"></feOffset><feGaussianBlur stdDeviation="5"></feGaussianBlur><feComposite in2="hardAlpha" operator="out"></feComposite><feColorMatrix values="0 0 0 0 1 0 0 0 0 1 0 0 0 0 1 0 0 0 0.25 0"></feColorMatrix><feBlend in2="BackgroundImageFix" result="effect1_dropShadow_1324_173"></feBlend><feBlend in="SourceGraphic" in2="effect1_dropShadow_1324_173" result="shape"></feBlend></filter></defs></svg>